<?xml version="1.0" encoding="us-ascii" standalone="no"?><svg xmlns="http://www.w3.org/2000/svg" xmlns:xlink="http://www.w3.org/1999/xlink" contentStyleType="text/css" height="903.125px" preserveAspectRatio="none" style="width:1143px;height:903px;" version="1.1" viewBox="0 0 1143 903" width="1143.75px" zoomAndPan="magnify"><defs><linearGradient id="g1p1lltuaheqzl0" x1="50%" x2="50%" y1="0%" y2="100%"><stop offset="0%" stop-color="#FFFFFF"/><stop offset="100%" stop-color="#FFFFFF"/></linearGradient><filter height="300%" id="f1p1lltuaheqzl" width="300%" x="-1" y="-1"><feGaussianBlur result="blurOut" stdDeviation="2.0833333333333335"/><feColorMatrix in="blurOut" result="blurOut2" type="matrix" values="0 0 0 0 0 0 0 0 0 0 0 0 0 0 0 0 0 0 .4 0"/><feOffset dx="4.166666666666667" dy="4.166666666666667" in="blurOut2" result="blurOut3"/><feBlend in="SourceGraphic" in2="blurOut3" mode="normal"/></filter><linearGradient id="g1p1lltuaheqzl1" x1="50%" x2="50%" y1="0%" y2="100%"><stop offset="0%" stop-color="#4DABF5"/><stop offset="100%" stop-color="#2196F3"/></linearGradient></defs><g><rect fill="url(#g1p1lltuaheqzl0)" height="37.8418" style="stroke:url(#g1p1lltuaheqzl0);stroke-width:1.0416666666666667;" width="1110.1563" x="15.625" y="11.4583"/><ellipse cx="229.1667" cy="64.9251" fill="#9C27B0" filter="url(#f1p1lltuaheqzl)" rx="10.4167" ry="10.4167" style="stroke:#1A78C2;stroke-width:1.0416666666666667;"/><rect fill="url(#g1p1lltuaheqzl1)" filter="url(#f1p1lltuaheqzl)" height="50.3585" rx="4.1667" ry="4.1667" style="stroke:#2196F3;stroke-width:1.0416666666666667;" width="146.875" x="155.7292" y="96.1751"/><text fill="#FFFFFF" font-family="Verdana" font-size="12.5" lengthAdjust="spacing" textLength="113.5417" x="172.3958" y="126.2044">Send POST Request</text><rect fill="url(#g1p1lltuaheqzl1)" filter="url(#f1p1lltuaheqzl)" height="50.3585" rx="4.1667" ry="4.1667" style="stroke:#2196F3;stroke-width:1.0416666666666667;" width="162.5" x="21.875" y="368.6382"/><text fill="#FFFFFF" font-family="Verdana" font-size="12.5" lengthAdjust="spacing" textLength="129.1667" x="38.5417" y="398.6674">Receive 404 Response</text><ellipse cx="103.125" cy="451.2883" fill="none" filter="url(#f1p1lltuaheqzl)" rx="11.4583" ry="11.4583" style="stroke:#1A78C2;stroke-width:1.0416666666666667;"/><ellipse cx="103.125" cy="451.2883" fill="none" rx="6.25" ry="6.25" style="stroke:#1A78C2;stroke-width:1.0416666666666667;"/><rect fill="url(#g1p1lltuaheqzl1)" filter="url(#f1p1lltuaheqzl)" height="50.3585" rx="4.1667" ry="4.1667" style="stroke:#2196F3;stroke-width:1.0416666666666667;" width="270.8333" x="93.75" y="791.4597"/><text fill="#FFFFFF" font-family="Verdana" font-size="12.5" lengthAdjust="spacing" textLength="237.5" x="110.4167" y="821.4889">Receive 200 Response with JSON Payload</text><ellipse cx="229.1667" cy="874.1098" fill="none" filter="url(#f1p1lltuaheqzl)" rx="11.4583" ry="11.4583" style="stroke:#1A78C2;stroke-width:1.0416666666666667;"/><ellipse cx="229.1667" cy="874.1098" fill="none" rx="6.25" ry="6.25" style="stroke:#1A78C2;stroke-width:1.0416666666666667;"/><line style="stroke:#2E86C1;stroke-width:2.0833333333333335;" x1="15.625" x2="15.625" y1="11.4583" y2="885.5681"/><rect fill="url(#g1p1lltuaheqzl1)" filter="url(#f1p1lltuaheqzl)" height="50.3585" rx="4.1667" ry="4.1667" style="stroke:#2196F3;stroke-width:1.0416666666666667;" width="128.125" x="544.2708" y="167.3669"/><text fill="#FFFFFF" font-family="Verdana" font-size="12.5" lengthAdjust="spacing" textLength="94.7917" x="560.9375" y="197.3961">Receive Request</text><polygon fill="url(#g1p1lltuaheqzl0)" filter="url(#f1p1lltuaheqzl)" points="505.2083,238.7546,711.4583,238.7546,723.9583,257.6838,711.4583,276.613,505.2083,276.613,492.7083,257.6838,505.2083,238.7546" style="stroke:#CCCCCC;stroke-width:1.0416666666666667;"/><text fill="#222222" font-family="Verdana" font-size="12.5" lengthAdjust="spacing" textLength="185.4167" x="515.625" y="262.5338">Request URI ends on "/jsonrpc"?</text><text fill="#222222" font-family="Verdana" font-size="12.5" lengthAdjust="spacing" textLength="14.5833" x="467.7083" y="243.6046">no</text><text fill="#222222" font-family="Verdana" font-size="12.5" lengthAdjust="spacing" textLength="19.7917" x="734.375" y="243.6046">yes</text><rect fill="url(#g1p1lltuaheqzl1)" filter="url(#f1p1lltuaheqzl)" height="50.3585" rx="4.1667" ry="4.1667" style="stroke:#2196F3;stroke-width:1.0416666666666667;" width="202.0833" x="381.25" y="297.4464"/><text fill="#FFFFFF" font-family="Verdana" font-size="12.5" lengthAdjust="spacing" textLength="168.75" x="397.9167" y="327.4756">Return 404 Response to User</text><rect fill="url(#g1p1lltuaheqzl1)" filter="url(#f1p1lltuaheqzl)" height="50.3585" rx="4.1667" ry="4.1667" style="stroke:#2196F3;stroke-width:1.0416666666666667;" width="188.5417" x="640.1042" y="297.4464"/><text fill="#FFFFFF" font-family="Verdana" font-size="12.5" lengthAdjust="spacing" textLength="155.2083" x="656.7708" y="327.4756">Handle JSON-RPC Endpoint</text><polygon fill="url(#g1p1lltuaheqzl0)" filter="url(#f1p1lltuaheqzl)" points="541.1458,483.7759,675.5208,483.7759,688.0208,502.7051,675.5208,521.6343,541.1458,521.6343,528.6458,502.7051,541.1458,483.7759" style="stroke:#CCCCCC;stroke-width:1.0416666666666667;"/><text fill="#222222" font-family="Verdana" font-size="12.5" lengthAdjust="spacing" textLength="113.5417" x="551.5625" y="507.5551">Java Method exists?</text><text fill="#222222" font-family="Verdana" font-size="12.5" lengthAdjust="spacing" textLength="19.7917" x="498.4375" y="488.6259">yes</text><text fill="#222222" font-family="Verdana" font-size="12.5" lengthAdjust="spacing" textLength="14.5833" x="698.4375" y="488.6259">no</text><rect fill="url(#g1p1lltuaheqzl1)" filter="url(#f1p1lltuaheqzl)" height="50.3585" rx="4.1667" ry="4.1667" style="stroke:#2196F3;stroke-width:1.0416666666666667;" width="214.5833" x="383.5938" y="542.4676"/><text fill="#FFFFFF" font-family="Verdana" font-size="12.5" lengthAdjust="spacing" textLength="181.25" x="400.2604" y="572.4969">Invoke Java Application Method</text><rect fill="url(#g1p1lltuaheqzl1)" filter="url(#f1p1lltuaheqzl)" height="50.3585" rx="4.1667" ry="4.1667" style="stroke:#2196F3;stroke-width:1.0416666666666667;" width="213.5417" x="619.0104" y="542.4676"/><text fill="#FFFFFF" font-family="Verdana" font-size="12.5" lengthAdjust="spacing" textLength="180.2083" x="635.6771" y="572.4969">Invoke Perl Application Method</text><polygon fill="url(#g1p1lltuaheqzl0)" filter="url(#f1p1lltuaheqzl)" points="608.3333,674.4345,620.8333,686.9345,608.3333,699.4345,595.8333,686.9345,608.3333,674.4345" style="stroke:#CCCCCC;stroke-width:1.0416666666666667;"/><rect fill="url(#g1p1lltuaheqzl1)" filter="url(#f1p1lltuaheqzl)" height="50.3585" rx="4.1667" ry="4.1667" style="stroke:#2196F3;stroke-width:1.0416666666666667;" width="154.1667" x="531.25" y="720.2679"/><text fill="#FFFFFF" font-family="Verdana" font-size="12.5" lengthAdjust="spacing" textLength="120.8333" x="547.9167" y="750.2971">Send JSON Response</text><line style="stroke:#2E86C1;stroke-width:2.0833333333333335;" x1="375" x2="375" y1="11.4583" y2="885.5681"/><rect fill="url(#g1p1lltuaheqzl1)" filter="url(#f1p1lltuaheqzl)" height="50.3585" rx="4.1667" ry="4.1667" style="stroke:#2196F3;stroke-width:1.0416666666666667;" width="119.7917" x="849.2188" y="613.6594"/><text fill="#FFFFFF" font-family="Verdana" font-size="12.5" lengthAdjust="spacing" textLength="86.4583" x="865.8854" y="643.6887">Process in Java</text><line style="stroke:#2E86C1;stroke-width:2.0833333333333335;" x1="842.9688" x2="842.9688" y1="11.4583" y2="885.5681"/><rect fill="url(#g1p1lltuaheqzl1)" filter="url(#f1p1lltuaheqzl)" height="50.3585" rx="4.1667" ry="4.1667" style="stroke:#2196F3;stroke-width:1.0416666666666667;" width="118.75" x="985.6771" y="613.6594"/><text fill="#FFFFFF" font-family="Verdana" font-size="12.5" lengthAdjust="spacing" textLength="85.4167" x="1002.3438" y="643.6887">Process in Perl</text><line style="stroke:#2E86C1;stroke-width:2.0833333333333335;" x1="979.4271" x2="979.4271" y1="11.4583" y2="885.5681"/><line style="stroke:#2E86C1;stroke-width:2.0833333333333335;" x1="1114.8438" x2="1114.8438" y1="11.4583" y2="885.5681"/><line style="stroke:#2196F3;stroke-width:3.125;" x1="229.1667" x2="229.1667" y1="75.3418" y2="96.1751"/><polygon fill="#2196F3" points="225,85.7584,229.1667,96.1751,233.3333,85.7584,229.1667,89.9251" style="stroke:#2196F3;stroke-width:1.0416666666666667;"/><line style="stroke:#2196F3;stroke-width:3.125;" x1="103.125" x2="103.125" y1="418.9966" y2="439.8299"/><polygon fill="#2196F3" points="98.9583,429.4133,103.125,439.8299,107.2917,429.4133,103.125,433.5799" style="stroke:#2196F3;stroke-width:1.0416666666666667;"/><line style="stroke:#2196F3;stroke-width:3.125;" x1="229.1667" x2="229.1667" y1="841.8181" y2="862.6515"/><polygon fill="#2196F3" points="225,852.2348,229.1667,862.6515,233.3333,852.2348,229.1667,856.4015" style="stroke:#2196F3;stroke-width:1.0416666666666667;"/><line style="stroke:#2196F3;stroke-width:3.125;" x1="492.7083" x2="482.2917" y1="257.6838" y2="257.6838"/><line style="stroke:#2196F3;stroke-width:3.125;" x1="482.2917" x2="482.2917" y1="257.6838" y2="297.4464"/><polygon fill="#2196F3" points="478.125,287.0297,482.2917,297.4464,486.4583,287.0297,482.2917,291.1964" style="stroke:#2196F3;stroke-width:1.0416666666666667;"/><line style="stroke:#2196F3;stroke-width:3.125;" x1="723.9583" x2="734.375" y1="257.6838" y2="257.6838"/><line style="stroke:#2196F3;stroke-width:3.125;" x1="734.375" x2="734.375" y1="257.6838" y2="297.4464"/><polygon fill="#2196F3" points="730.2083,287.0297,734.375,297.4464,738.5417,287.0297,734.375,291.1964" style="stroke:#2196F3;stroke-width:1.0416666666666667;"/><line style="stroke:#2196F3;stroke-width:3.125;" x1="734.375" x2="734.375" y1="347.8048" y2="467.9549"/><line style="stroke:#2196F3;stroke-width:3.125;" x1="734.375" x2="608.3333" y1="467.9549" y2="467.9549"/><line style="stroke:#2196F3;stroke-width:3.125;" x1="608.3333" x2="608.3333" y1="467.9549" y2="483.7759"/><polygon fill="#2196F3" points="604.1667,473.3592,608.3333,483.7759,612.5,473.3592,608.3333,477.5259" style="stroke:#2196F3;stroke-width:1.0416666666666667;"/><line style="stroke:#2196F3;stroke-width:3.125;" x1="608.3333" x2="608.3333" y1="217.7253" y2="238.7546"/><polygon fill="#2196F3" points="604.1667,228.3379,608.3333,238.7546,612.5,228.3379,608.3333,232.5046" style="stroke:#2196F3;stroke-width:1.0416666666666667;"/><line style="stroke:#2196F3;stroke-width:3.125;" x1="528.6458" x2="490.8854" y1="502.7051" y2="502.7051"/><line style="stroke:#2196F3;stroke-width:3.125;" x1="490.8854" x2="490.8854" y1="502.7051" y2="542.4676"/><polygon fill="#2196F3" points="486.7188,532.051,490.8854,542.4676,495.0521,532.051,490.8854,536.2176" style="stroke:#2196F3;stroke-width:1.0416666666666667;"/><line style="stroke:#2196F3;stroke-width:3.125;" x1="688.0208" x2="725.7813" y1="502.7051" y2="502.7051"/><line style="stroke:#2196F3;stroke-width:3.125;" x1="725.7813" x2="725.7813" y1="502.7051" y2="542.4676"/><polygon fill="#2196F3" points="721.6146,532.051,725.7813,542.4676,729.9479,532.051,725.7813,536.2176" style="stroke:#2196F3;stroke-width:1.0416666666666667;"/><line style="stroke:#2196F3;stroke-width:3.125;" x1="608.3333" x2="608.3333" y1="699.4345" y2="720.2679"/><polygon fill="#2196F3" points="604.1667,709.8512,608.3333,720.2679,612.5,709.8512,608.3333,714.0179" style="stroke:#2196F3;stroke-width:1.0416666666666667;"/><line style="stroke:#2196F3;stroke-width:3.125;" x1="229.1667" x2="229.1667" y1="146.5335" y2="151.7419"/><line style="stroke:#2196F3;stroke-width:3.125;" x1="229.1667" x2="608.3333" y1="151.7419" y2="151.7419"/><line style="stroke:#2196F3;stroke-width:3.125;" x1="608.3333" x2="608.3333" y1="151.7419" y2="167.3669"/><polygon fill="#2196F3" points="604.1667,156.9502,608.3333,167.3669,612.5,156.9502,608.3333,161.1169" style="stroke:#2196F3;stroke-width:1.0416666666666667;"/><line style="stroke:#2196F3;stroke-width:3.125;" x1="482.2917" x2="482.2917" y1="347.8048" y2="353.0132"/><line style="stroke:#2196F3;stroke-width:3.125;" x1="482.2917" x2="103.125" y1="353.0132" y2="353.0132"/><line style="stroke:#2196F3;stroke-width:3.125;" x1="103.125" x2="103.125" y1="353.0132" y2="368.6382"/><polygon fill="#2196F3" points="98.9583,358.2215,103.125,368.6382,107.2917,358.2215,103.125,362.3882" style="stroke:#2196F3;stroke-width:1.0416666666666667;"/><line style="stroke:#2196F3;stroke-width:3.125;" x1="490.8854" x2="490.8854" y1="592.8261" y2="598.0344"/><line style="stroke:#2196F3;stroke-width:3.125;" x1="490.8854" x2="909.1146" y1="598.0344" y2="598.0344"/><line style="stroke:#2196F3;stroke-width:3.125;" x1="909.1146" x2="909.1146" y1="598.0344" y2="613.6594"/><polygon fill="#2196F3" points="904.9479,603.2428,909.1146,613.6594,913.2813,603.2428,909.1146,607.4094" style="stroke:#2196F3;stroke-width:1.0416666666666667;"/><line style="stroke:#2196F3;stroke-width:3.125;" x1="725.7813" x2="725.7813" y1="592.8261" y2="598.0344"/><line style="stroke:#2196F3;stroke-width:3.125;" x1="725.7813" x2="1045.0521" y1="598.0344" y2="598.0344"/><line style="stroke:#2196F3;stroke-width:3.125;" x1="1045.0521" x2="1045.0521" y1="598.0344" y2="613.6594"/><polygon fill="#2196F3" points="1040.8854,603.2428,1045.0521,613.6594,1049.2188,603.2428,1045.0521,607.4094" style="stroke:#2196F3;stroke-width:1.0416666666666667;"/><line style="stroke:#2196F3;stroke-width:3.125;" x1="909.1146" x2="909.1146" y1="664.0179" y2="669.2262"/><line style="stroke:#2196F3;stroke-width:3.125;" x1="909.1146" x2="577.0833" y1="669.2262" y2="669.2262"/><line style="stroke:#2196F3;stroke-width:3.125;" x1="577.0833" x2="577.0833" y1="669.2262" y2="686.9345"/><line style="stroke:#2196F3;stroke-width:3.125;" x1="577.0833" x2="595.8333" y1="686.9345" y2="686.9345"/><polygon fill="#2196F3" points="585.4167,682.7679,595.8333,686.9345,585.4167,691.1012,589.5833,686.9345" style="stroke:#2196F3;stroke-width:1.0416666666666667;"/><line style="stroke:#2196F3;stroke-width:3.125;" x1="1045.0521" x2="1045.0521" y1="664.0179" y2="686.9345"/><line style="stroke:#2196F3;stroke-width:3.125;" x1="1045.0521" x2="620.8333" y1="686.9345" y2="686.9345"/><polygon fill="#2196F3" points="631.25,682.7679,620.8333,686.9345,631.25,691.1012,627.0833,686.9345" style="stroke:#2196F3;stroke-width:1.0416666666666667;"/><line style="stroke:#2196F3;stroke-width:3.125;" x1="608.3333" x2="608.3333" y1="770.6263" y2="775.8347"/><line style="stroke:#2196F3;stroke-width:3.125;" x1="608.3333" x2="229.1667" y1="775.8347" y2="775.8347"/><line style="stroke:#2196F3;stroke-width:3.125;" x1="229.1667" x2="229.1667" y1="775.8347" y2="791.4597"/><polygon fill="#2196F3" points="225,781.043,229.1667,791.4597,233.3333,781.043,229.1667,785.2097" style="stroke:#2196F3;stroke-width:1.0416666666666667;"/><text fill="#2196F3" font-family="Verdana" font-size="12.5" lengthAdjust="spacing" textLength="28.125" x="181.25" y="35.2376">User</text><text fill="#2196F3" font-family="Verdana" font-size="12.5" lengthAdjust="spacing" textLength="77.0833" x="570.4427" y="35.2376">java-wrapper</text><text fill="#2196F3" font-family="Verdana" font-size="12.5" lengthAdjust="spacing" textLength="66.6667" x="877.8646" y="35.2376">perlapp-ejb</text><text fill="#2196F3" font-family="Verdana" font-size="12.5" lengthAdjust="spacing" textLength="44.7917" x="1024.7396" y="35.2376">perlapp</text><!--SRC=[XP7FJi904CRl-nGZNl10H4ACWODHGY8aIjFA0wpj41QsE-lk0fBmyCws3H1xyDZq-_ERRs_26ak4KWPqIWhXjyfOwMG9sK6LMXfy9LUWcv0c1xU3wTFZv468qzAZEmaVf0i2O9IXAI1PP9-GulSEVHYpPYFtidTmqjgePLMAEQezNZHg1Ttc0vRf33Z50ndet6yy6MVpplCTCA61hg6xEYBid85XVyWftfBn284WuepvVyDrrNMjZ0eVo0hKREiUqSVCDkURD8L6c6UBZrwQJ61g2alAC303gfMekEViWdSCQoe0VvGF_ipQ18zcPazRpedA5skrocLGV5xjgdYvKdDn3pTVLNNYA4VlGPdAnZFMhFNvRTIc8k6OVoh-naVB-Q1sSFMYSO6hzKHxta6_Vtc8WmhhsfF8eoR9_IBk_Gi0]--></g></svg>